<svg version="1.1" xmlns="http://www.w3.org/2000/svg" xmlns:xlink="http://www.w3.org/1999/xlink" width="161.04488" height="204.10559" viewBox="0,0,161.04488,204.10559"><g transform="translate(-49.41108,-97.94528)"><g data-paper-data="{&quot;isPaintingLayer&quot;:true}" fill="#9966ff" fill-rule="nonzero" stroke="none" stroke-width="0.5" stroke-linecap="butt" stroke-linejoin="miter" stroke-miterlimit="10" stroke-dasharray="" stroke-dashoffset="0" style="mix-blend-mode: normal"><path d="M209.10119,301.71265c-2.21265,1.16369 -3.37634,-1.04896 -3.37634,-1.04896l-2.2484,-4.27514c-5.30088,-10.07914 -10.07267,-21.09385 -16.58875,-30.45737c-3.67395,-5.27941 -8.49632,-10.07355 -12.64179,-14.99629c-22.31095,-26.49513 -44.08838,-53.46221 -66.27546,-80.06644c-12.80231,-15.35107 -26.01176,-30.3488 -39.04926,-45.50023c-6.55925,-7.62278 -13.93446,-14.96099 -19.12741,-23.58198c0,0 -1.28624,-2.14373 0.85749,-3.42997c2.14373,-1.28624 3.42997,0.85749 3.42997,0.85749c5.00396,8.37574 12.27067,15.50281 18.62997,22.89322c13.05429,15.17094 26.28035,30.18827 39.09915,45.55911c22.18195,26.59808 43.95346,53.55986 66.26011,80.04813c4.24349,5.03914 9.15483,9.9502 12.91685,15.3546c6.63983,9.53857 11.51428,20.72443 16.91444,30.99236l2.2484,4.27514c0,0 1.16369,2.21265 -1.04896,3.37634z"/></g></g></svg>